<svg width="86" height="86" viewBox="0 0 86 86" fill="none" xmlns="http://www.w3.org/2000/svg">
<path d="M43.457 29.9351C42.1539 30.9859 40.9349 32.0368 39.6319 33.0876C39.2536 32.7093 38.8753 32.373 38.539 31.9947C36.3532 29.9351 33.9573 28.1696 31.2251 26.9506C28.1145 25.5635 24.8359 24.933 21.4311 25.1852C18.5728 25.4374 15.9667 26.3201 13.7809 28.2537C11.8053 30.0191 10.7544 32.2469 10.166 34.769C9.07308 39.687 9.53546 44.4789 11.0907 49.2287C13.1504 55.4497 16.5552 60.7881 21.4311 65.2017C24.7098 68.1861 28.6189 70.0356 32.9064 71.0024C34.84 71.4647 36.7736 71.6329 38.7492 71.4647C41.4814 71.2125 43.9194 70.2878 45.8529 68.3122C47.6184 66.5468 48.6272 64.403 49.1316 62.0071C49.7201 59.3589 49.678 56.6687 49.3418 53.9786C48.9214 50.6158 48.0387 47.3792 46.7777 44.2687C46.7356 44.2267 46.7356 44.1426 46.6936 44.0585C48.2068 43.0917 49.7201 42.0829 51.2333 41.1161C51.4435 41.2002 51.4435 41.3683 51.5275 41.4944C53.5872 45.4877 55.1004 49.649 55.857 54.0626C56.8238 59.6952 56.6137 65.2437 54.512 70.6241C53.377 73.5664 51.7377 76.2146 49.3838 78.4004C46.7356 80.8804 43.6251 82.2675 40.0102 82.5617C36.3532 82.856 32.8644 82.0573 29.4596 80.6702C25.8867 79.199 22.6501 77.0973 19.6657 74.6593C15.9246 71.5908 12.5199 68.1861 9.66156 64.2769C5.03781 58.0138 2.05339 50.9941 0.624226 43.3439C0.119817 40.6537 -0.090354 37.9636 0.0357483 35.2314C0.245919 31.3222 1.04457 27.5391 3.0622 24.1344C5.54221 19.8469 9.28325 17.4089 14.1592 16.6523C18.0684 16.0218 21.8935 16.5682 25.6345 17.7452C31.0569 19.4265 35.7227 22.3269 39.8 26.2361C40.9349 27.3289 42.0699 28.4218 43.1207 29.5988C43.2468 29.6829 43.3309 29.809 43.457 29.9351Z" fill="url(#paint0_radial_656_4015)"/>
<path d="M71.4518 4C71.6199 6.18577 71.7461 8.32951 71.9142 10.4733C72.0823 12.617 72.2505 14.7187 72.4186 16.8624C72.4186 16.9045 72.4186 16.9465 72.4186 16.9885C72.4606 18.2075 72.2925 17.9133 73.4274 18.3757C77.1685 19.8469 80.9095 21.3181 84.6505 22.7892C84.8187 22.8313 84.9868 22.9153 85.1549 22.9994C84.3563 23.5879 83.5576 24.1343 82.801 24.6808C79.1441 27.3289 75.4871 29.935 71.8301 32.5832C69.8545 34.0124 67.6687 34.5588 65.2728 34.3486C64.1799 34.2646 63.087 33.8442 62.0362 33.55C60.7331 33.1717 59.4721 32.8354 58.169 32.4151C57.8748 32.331 57.6646 32.373 57.4124 32.5412C54.0497 34.7269 50.687 36.8707 47.3663 39.0564C42.4903 42.209 37.6144 45.3616 32.7384 48.5141C31.8137 49.1026 30.7208 48.9345 30.1743 48.0938C29.5858 47.2531 29.754 46.2022 30.5947 45.5297C34.2516 42.5453 37.8666 39.5609 41.4815 36.5764C45.3907 33.3818 49.2578 30.1873 53.167 26.9927C53.7134 26.5723 53.9236 26.0679 53.9236 25.4374C53.9656 23.8401 54.0077 22.2428 54.0917 20.6875C54.3019 17.7452 55.5629 15.3492 57.9589 13.5838C61.2375 11.1878 64.5162 8.83392 67.8369 6.48001C68.9298 5.68136 69.9806 4.92475 71.0735 4.1261C71.1996 4.08407 71.2837 4 71.4518 4Z" fill="url(#paint1_linear_656_4015)"/>
<path d="M27.106 43.8904C24.4999 46.3704 25.9711 51.7508 30.5108 52.6335C32.024 52.9277 33.5793 52.5915 34.8403 51.7508C36.8579 50.4477 38.9176 49.1447 40.9352 47.7996C41.0613 47.7155 41.1454 47.6735 41.2715 47.5894C41.3556 47.6314 41.3976 47.6735 41.3976 47.7575C42.0701 49.9013 42.5325 52.087 42.4485 54.3149C42.4064 55.744 42.1542 57.1732 41.4817 58.4762C40.3888 60.62 38.6234 61.7969 36.2694 62.1332C33.4952 62.5535 30.9311 61.839 28.4931 60.5359C25.2565 58.7705 22.8185 56.2064 20.8009 53.1379C19.4138 50.9942 18.2789 48.6823 17.7744 46.1602C17.1019 42.8816 17.3961 39.729 19.1195 36.7866C20.7589 34.0124 23.2389 32.6253 26.4755 32.7514C28.5352 32.8354 30.3847 33.6761 32.1501 34.769C32.9908 35.3154 33.7894 35.946 34.546 36.6185C34.6301 36.7026 34.7142 36.7866 34.7982 36.9127C34.2938 37.3331 33.7894 37.7534 33.285 38.1738C31.8138 39.4768 28.6192 42.4612 27.106 43.8904Z" fill="#FFB701"/>
<defs>
<radialGradient id="paint0_radial_656_4015" cx="0" cy="0" r="1" gradientUnits="userSpaceOnUse" gradientTransform="translate(28.2276 49.5398) scale(30.7754 61.5507)">
<stop offset="0.9367" stop-color="#209BB9"/>
<stop offset="1" stop-color="#8ECAE6"/>
</radialGradient>
<linearGradient id="paint1_linear_656_4015" x1="29.7853" y1="26.4287" x2="85.1549" y2="26.4287" gradientUnits="userSpaceOnUse">
<stop offset="0.2106" stop-color="#FFB703"/>
<stop offset="0.5845" stop-color="#FB8501"/>
</linearGradient>
</defs>
</svg>
